<svg xmlns="http://www.w3.org/2000/svg" width="412.989" height="68.694" viewBox="2.808 8.347 412.989 68.694" enable-background="new 2.808 8.347 412.989 68.694"><path d="M38.523 62.64v-5.257h-.144c-3.096 4.033-6.985 6.265-12.961 6.265-12.817 0-22.61-9.433-22.61-27.578s8.929-27.723 24.698-27.723c13.033 0 18.793 6.841 20.954 15.914l-13.465 3.384c-1.584-4.752-3.816-6.912-7.993-6.912-6.625 0-9.505 5.616-9.505 15.265 0 10.226 3.456 15.481 9.577 15.481 5.688 0 8.281-3.384 9.865-7.345h-11.665v-10.801h24.482v29.307h-11.233zM81.938 37.581c-4.032 0-8.208 1.368-11.521 3.601v21.458h-13.897v-37.804h13.897v7.201h.144c2.592-4.681 7.057-7.993 11.377-7.993h.216v13.537h-.216zM119.746 46.654h-23.114c.504 4.969 2.88 6.984 6.913 6.984 3.096 0 7.057-1.656 10.369-4.248l5.688 7.417c-4.249 3.815-9.865 6.624-17.138 6.624-12.889 0-19.082-7.776-19.082-19.657 0-10.802 5.4-19.73 18.722-19.73 12.097 0 17.786 9.289 17.786 19.082 0 1.44-.072 2.448-.144 3.528zm-18.217-13.97c-2.592 0-4.32 1.656-4.896 6.481h10.009c-.433-4.608-2.017-6.481-5.113-6.481zM156.105 34.413c.216.864.288 1.872.288 2.881 0 9-7.489 13.249-16.633 13.249-1.656 0-3.312-.145-4.752-.433-.36.433-.648.937-.648 1.584 0 1.152.936 1.513 2.952 1.585l6.121.504c11.593.936 17.425 4.32 17.425 10.801 0 9.072-8.713 12.457-21.314 12.457-12.889 0-19.729-2.593-19.729-8.281 0-3.312 2.232-6.048 6.121-7.92-1.368-1.152-2.16-2.521-2.16-4.032 0-3.745 2.16-6.193 6.048-8.497-4.176-2.16-6.625-5.904-6.625-11.017 0-9.001 7.561-13.25 16.562-13.25 5.112 0 9.721 1.368 12.673 4.033 2.376-2.448 5.329-4.033 8.641-4.033v9.865c-1.801 0-3.602.144-4.97.504zm-13.321 30.603l-6.12-.432c-1.512-.145-2.88-.36-4.249-.648-.288.648-.504 1.296-.504 2.232 0 2.232 2.448 3.744 10.009 3.744 7.057 0 8.785-1.152 8.785-2.592 0-1.296-.936-1.801-7.921-2.304zm-3.024-33.412c-2.521 0-4.032 2.017-4.032 5.689s1.512 5.688 4.032 5.688c2.664 0 4.104-2.017 4.104-5.688.001-3.672-1.44-5.689-4.104-5.689zM201.743 63.647c-10.153 0-16.777-3.24-21.89-9.505l9.937-8.137c3.816 4.32 7.489 6.48 13.033 6.48 4.105 0 6.265-1.655 6.265-4.392 0-2.521-1.656-3.673-6.409-5.041-14.545-4.032-21.602-7.921-21.602-18.434 0-10.801 9.361-16.273 20.378-16.273 9.649 0 15.841 2.809 20.667 8.641l-9.865 8.209c-3.168-3.672-6.769-5.688-10.945-5.688-4.032 0-5.76 1.584-5.76 3.889 0 2.16 1.512 3.456 6.336 4.824 16.418 4.536 21.602 9.145 21.602 18.649-.001 8.642-6.41 16.778-21.747 16.778zM246.599 62.64c-.504-1.152-.792-2.232-1.008-3.528-2.736 2.521-5.977 4.32-10.729 4.32-6.048 0-11.017-3.168-11.017-10.44 0-9.577 9.433-13.897 21.746-14.905v-.505c0-2.592-1.225-3.815-4.824-3.815-3.24 0-6.337 1.296-9.649 3.744l-6.12-7.489c4.032-3.6 9.864-5.977 18.073-5.977 10.441 0 16.058 3.601 16.058 14.33v14.975c0 3.961.288 7.417 1.152 9.289h-13.682zm-1.008-17.426c-5.545.648-8.425 2.736-8.425 6.049 0 2.017 1.08 3.456 3.312 3.456 1.728 0 3.6-.936 5.112-2.376v-7.129zM289.944 37.581c-4.032 0-8.209 1.368-11.521 3.601v21.458h-13.896v-37.804h13.896v7.201h.145c2.592-4.681 7.057-7.993 11.377-7.993h.216v13.537h-.217zM312.55 62.64c-.504-1.152-.792-2.232-1.008-3.528-2.736 2.521-5.977 4.32-10.729 4.32-6.048 0-11.017-3.168-11.017-10.44 0-9.577 9.433-13.897 21.746-14.905v-.505c0-2.592-1.225-3.815-4.824-3.815-3.24 0-6.337 1.296-9.649 3.744l-6.12-7.489c4.032-3.6 9.864-5.977 18.073-5.977 10.441 0 16.058 3.601 16.058 14.33v14.975c0 3.961.288 7.417 1.152 9.289h-13.682zm-1.008-17.426c-5.545.648-8.425 2.736-8.425 6.049 0 2.017 1.08 3.456 3.312 3.456 1.728 0 3.6-.936 5.112-2.376v-7.129zM352.726 62.64v-4.608c-4.249 3.385-8.137 5.4-12.89 5.4-5.688 0-8.568-3.097-8.568-9.648v-28.948h13.897v25.274c0 1.584.576 2.521 2.088 2.521s3.24-.937 5.473-2.521v-25.274h13.897v37.804h-13.897zM373.1 62.64v-53.285h13.897v53.285h-13.897zM407.877 63.143c-8.137 0-13.105-3.24-13.105-11.953v-16.85h-3.96v-9.505h3.96v-12.384h13.825v12.385h6.841v9.505h-6.841v14.834c0 2.952 1.368 4.104 3.672 4.104 1.513 0 2.593-.072 3.528-.288v9.721c-1.727.288-4.032.431-7.92.431z"/></svg>